<svg width="1080" height="569" viewBox="0 0 1080 569" fill="none" xmlns="http://www.w3.org/2000/svg">
<path d="M263.946 397.047C263.946 448.535 222.206 490.275 170.717 490.275C119.229 490.275 77.4888 448.535 77.4888 397.047C77.4888 345.558 119.229 303.818 170.717 303.818C222.206 303.818 263.946 345.558 263.946 397.047Z" fill="#FFA500"/>
<path d="M1002.51 302.607C1002.51 354.096 960.771 395.836 909.282 395.836C857.794 395.836 816.054 354.096 816.054 302.607C816.054 251.118 857.794 209.378 909.282 209.378C960.771 209.378 1002.51 251.118 1002.51 302.607Z" fill="#FFA500"/>
<path d="M144.081 242.062L188.879 152.466C246.995 50.7687 375.336 54.4004 427.399 152.466L527.892 353.452C579.955 474.536 416.502 553.235 358.386 426.098L303.901 317.129C251.747 245.991 213.575 242.513 144.081 242.062Z" fill="white"/>
<path d="M524.26 203.325C487.937 95.5667 630.807 26.5523 691.345 124.625L810 364.356C847.534 468.482 711.928 538.706 646.547 449.109L524.26 203.325Z" fill="white"/>
</svg>
