<svg width="122" height="64" viewBox="0 0 122 64" fill="none" xmlns="http://www.w3.org/2000/svg">
<path d="M29.7141 44.6983C29.7141 50.4948 25.0152 55.1937 19.2188 55.1937C13.4223 55.1937 8.72339 50.4948 8.72339 44.6983C8.72339 38.9019 13.4223 34.203 19.2188 34.203C25.0152 34.203 29.7141 38.9019 29.7141 44.6983Z" fill="#FFA500"/>
<path d="M112.859 34.0667C112.859 39.8631 108.16 44.562 102.364 44.562C96.5675 44.562 91.8686 39.8631 91.8686 34.0667C91.8686 28.2702 96.5675 23.5713 102.364 23.5713C108.16 23.5713 112.859 28.2702 112.859 34.0667Z" fill="#FFA500"/>
<path d="M16.2201 27.2507L21.2633 17.1642C27.8059 5.71552 42.2541 6.12436 48.1151 17.1642L59.4283 39.7906C65.2894 53.4218 46.8884 62.2815 40.3458 47.9688L34.2122 35.7015C28.3408 27.693 24.0435 27.3015 16.2201 27.2507Z" fill="white"/>
<path d="M59.0194 22.8898C54.9303 10.7587 71.0141 2.98932 77.8293 14.03L91.1871 41.0182C95.4125 52.7402 80.1465 60.6459 72.7861 50.5594L59.0194 22.8898Z" fill="white"/>
</svg>
