<svg width="33" height="32" viewBox="0 0 33 32" fill="none" xmlns="http://www.w3.org/2000/svg">
<path fill-rule="evenodd" clip-rule="evenodd" d="M8.76374 4.33337C8.37954 4.3335 8.00132 4.42849 7.66265 4.60992C7.32399 4.79135 7.03536 5.05359 6.82241 5.37337L2.03707 12.5494C1.74507 12.9894 1.71041 13.552 1.94641 14.024C4.56519 19.2615 8.20449 23.9226 12.6504 27.7334L14.9837 29.7347C15.281 29.9895 15.6596 30.1296 16.0511 30.1296C16.4426 30.1296 16.8212 29.9895 17.1184 29.7347L19.4517 27.7347C23.8983 23.9236 27.5381 19.2621 30.1571 14.024C30.3931 13.552 30.3571 12.9894 30.0651 12.5494L25.2771 5.37337C25.0641 5.05403 24.7756 4.79216 24.4372 4.61098C24.0988 4.4298 23.7209 4.33491 23.3371 4.33471L8.76374 4.33337ZM8.48641 6.48137C8.5169 6.4358 8.55816 6.39844 8.60653 6.37263C8.65491 6.34681 8.70891 6.33333 8.76374 6.33337H11.8837L9.33041 12.4614C9.27192 12.6016 9.22726 12.7472 9.19707 12.896C8.25806 12.8259 7.32017 12.7415 6.38374 12.6427L4.51041 12.4467L8.48641 6.48137ZM4.42374 14.448C6.81628 18.8375 9.97443 22.7637 13.7491 26.0414L9.58241 14.9294C8.4456 14.8513 7.31031 14.7526 6.17707 14.6334L4.42374 14.448ZM11.7651 15.0534L16.0504 26.4854L20.3371 15.0534C17.4808 15.1832 14.62 15.1832 11.7637 15.0534H11.7651ZM22.5211 14.9294L18.3544 26.0414C22.1291 22.7637 25.2872 18.8375 27.6797 14.448L25.9264 14.6334C24.7931 14.752 23.6584 14.8507 22.5211 14.9294ZM27.5917 12.4467L25.7171 12.644C24.7806 12.7428 23.8428 12.8273 22.9037 12.8974C22.8741 12.7481 22.8299 12.602 22.7717 12.4614L20.2171 6.33337H23.3371C23.3919 6.33333 23.4459 6.34681 23.4943 6.37263C23.5427 6.39844 23.5839 6.4358 23.6144 6.48137L27.5917 12.4467ZM20.8411 13.0267C17.6504 13.192 14.4544 13.192 11.2624 13.0267L14.0504 6.33337H18.0504L20.8397 13.0267H20.8411Z" fill="url(#paint0_linear_333_1115)" fill-opacity="0.8"/>
<defs>
<linearGradient id="paint0_linear_333_1115" x1="16.0515" y1="-5.74326" x2="22.8168" y2="59.682" gradientUnits="userSpaceOnUse">
<stop stop-color="#FD432A"/>
<stop offset="1" stop-color="#FD2AA9"/>
</linearGradient>
</defs>
</svg>
