<svg width="24" height="25" viewBox="0 0 24 25" fill="none" xmlns="http://www.w3.org/2000/svg">
<path d="M12 11.25C12.1989 11.25 12.3897 11.329 12.5303 11.4697C12.671 11.6103 12.75 11.8011 12.75 12V17C12.75 17.1989 12.671 17.3897 12.5303 17.5303C12.3897 17.671 12.1989 17.75 12 17.75C11.8011 17.75 11.6103 17.671 11.4697 17.5303C11.329 17.3897 11.25 17.1989 11.25 17V12C11.25 11.8011 11.329 11.6103 11.4697 11.4697C11.6103 11.329 11.8011 11.25 12 11.25ZM12 9.5C12.2652 9.5 12.5196 9.39464 12.7071 9.20711C12.8946 9.01957 13 8.76522 13 8.5C13 8.23478 12.8946 7.98043 12.7071 7.79289C12.5196 7.60536 12.2652 7.5 12 7.5C11.7348 7.5 11.4804 7.60536 11.2929 7.79289C11.1054 7.98043 11 8.23478 11 8.5C11 8.76522 11.1054 9.01957 11.2929 9.20711C11.4804 9.39464 11.7348 9.5 12 9.5Z" fill="#BEBEBE"/>
<path fill-rule="evenodd" clip-rule="evenodd" d="M3.25 12.5C3.25 10.1794 4.17187 7.95376 5.81282 6.31282C7.45376 4.67187 9.67936 3.75 12 3.75C14.3206 3.75 16.5462 4.67187 18.1872 6.31282C19.8281 7.95376 20.75 10.1794 20.75 12.5C20.75 14.8206 19.8281 17.0462 18.1872 18.6872C16.5462 20.3281 14.3206 21.25 12 21.25C9.67936 21.25 7.45376 20.3281 5.81282 18.6872C4.17187 17.0462 3.25 14.8206 3.25 12.5ZM12 5.25C11.0479 5.25 10.1052 5.43753 9.22554 5.80187C8.34593 6.16622 7.5467 6.70025 6.87348 7.37348C6.20025 8.0467 5.66622 8.84593 5.30187 9.72554C4.93753 10.6052 4.75 11.5479 4.75 12.5C4.75 13.4521 4.93753 14.3948 5.30187 15.2745C5.66622 16.1541 6.20025 16.9533 6.87348 17.6265C7.5467 18.2997 8.34593 18.8338 9.22554 19.1981C10.1052 19.5625 11.0479 19.75 12 19.75C13.9228 19.75 15.7669 18.9862 17.1265 17.6265C18.4862 16.2669 19.25 14.4228 19.25 12.5C19.25 10.5772 18.4862 8.73311 17.1265 7.37348C15.7669 6.01384 13.9228 5.25 12 5.25Z" fill="#BEBEBE"/>
</svg>
