<svg width="24" height="24" viewBox="0 0 24 24" fill="none" xmlns="http://www.w3.org/2000/svg">
<g id="Basil_Icons">
<path id="Vector" d="M13.47 8.53009C13.3375 8.38792 13.2654 8.19987 13.2688 8.00557C13.2723 7.81127 13.351 7.62588 13.4884 7.48847C13.6258 7.35106 13.8112 7.27234 14.0055 7.26892C14.1998 7.26549 14.3878 7.33761 14.53 7.47009L18.53 11.4701C18.6705 11.6107 18.7493 11.8013 18.7493 12.0001C18.7493 12.1988 18.6705 12.3895 18.53 12.5301L14.53 16.5301C14.4613 16.6038 14.3785 16.6629 14.2865 16.7039C14.1945 16.7449 14.0952 16.7669 13.9945 16.7687C13.8938 16.7705 13.7938 16.7519 13.7004 16.7142C13.607 16.6765 13.5222 16.6203 13.451 16.5491C13.3797 16.4779 13.3236 16.3931 13.2859 16.2997C13.2482 16.2063 13.2296 16.1063 13.2314 16.0056C13.2332 15.9049 13.2552 15.8056 13.2962 15.7136C13.3372 15.6216 13.3963 15.5388 13.47 15.4701L16.19 12.7501H6.5C6.30109 12.7501 6.11032 12.6711 5.96967 12.5304C5.82902 12.3898 5.75 12.199 5.75 12.0001C5.75 11.8012 5.82902 11.6104 5.96967 11.4698C6.11032 11.3291 6.30109 11.2501 6.5 11.2501H16.19L13.47 8.53009Z" fill="#BEBEBE"/>
</g>
</svg>
