<svg width="33" height="32" viewBox="0 0 33 32" fill="none" xmlns="http://www.w3.org/2000/svg">
<path fill-rule="evenodd" clip-rule="evenodd" d="M27.7835 6.04C27.9601 5.85043 28.0563 5.5997 28.0517 5.34064C28.0471 5.08157 27.9422 4.83439 27.7589 4.65117C27.5757 4.46795 27.3285 4.363 27.0695 4.35843C26.8104 4.35386 26.5597 4.45003 26.3701 4.62667L5.03678 25.96C4.93853 26.0515 4.85973 26.1619 4.80508 26.2846C4.75042 26.4073 4.72103 26.5397 4.71866 26.674C4.71629 26.8082 4.74099 26.9416 4.79129 27.0661C4.84158 27.1906 4.91644 27.3038 5.0114 27.3987C5.10636 27.4937 5.21947 27.5685 5.34399 27.6188C5.4685 27.6691 5.60188 27.6938 5.73615 27.6915C5.87042 27.6891 6.00284 27.6597 6.1255 27.605C6.24817 27.5504 6.35857 27.4716 6.45012 27.3733L10.2461 23.5773C12.0688 24.436 14.1661 25 16.4101 25C19.9888 25 23.1968 23.564 25.5035 21.7933C26.6595 20.9067 27.6141 19.9173 28.2888 18.9453C28.9448 18 29.4101 16.964 29.4101 16C29.4101 15.036 28.9435 14 28.2888 13.0547C27.6141 12.0827 26.6594 11.0947 25.5048 10.2067C25.1541 9.93867 24.7848 9.67733 24.3955 9.42933L27.7835 6.04ZM22.9435 10.8813L20.5821 13.2427C21.2187 14.2042 21.5034 15.3562 21.388 16.5036C21.2726 17.6509 20.7641 18.7231 19.9487 19.5385C19.1332 20.3539 18.061 20.8624 16.9137 20.9779C15.7663 21.0933 14.6143 20.8086 13.6528 20.172L11.7635 22.06C13.237 22.6709 14.815 22.9901 16.4101 23C19.4595 23 22.2501 21.7693 24.2861 20.2067C25.3021 19.4267 26.1048 18.5827 26.6461 17.8053C27.2048 17 27.4101 16.3693 27.4101 16C27.4101 15.6307 27.2048 15 26.6461 14.1947C26.1048 13.4173 25.3021 12.5733 24.2861 11.7933C23.8688 11.4733 23.4208 11.1667 22.9435 10.8813ZM15.1168 18.708C15.6766 18.9754 16.3055 19.0626 16.917 18.9577C17.5284 18.8528 18.0923 18.5609 18.531 18.1222C18.9697 17.6835 19.2616 17.1196 19.3665 16.5082C19.4714 15.8967 19.3841 15.2678 19.1168 14.708L15.1168 18.708Z" fill="url(#paint0_linear_333_1105)" fill-opacity="0.8"/>
<path d="M16.4102 7C17.7862 7 19.1088 7.21333 20.3448 7.57467C20.3989 7.59081 20.4479 7.62082 20.4868 7.66172C20.5258 7.70262 20.5534 7.75299 20.5668 7.80783C20.5803 7.86268 20.5792 7.92009 20.5637 7.97438C20.5481 8.02867 20.5186 8.07795 20.4782 8.11733L19.3795 9.21733C19.3387 9.2578 19.2883 9.28724 19.233 9.30286C19.1778 9.31849 19.1194 9.3198 19.0635 9.30667C18.1935 9.1046 17.3033 9.00172 16.4102 9C13.3608 9 10.5702 10.2307 8.53416 11.7933C7.51816 12.5733 6.71549 13.4173 6.17416 14.1947C5.61549 15 5.41016 15.6307 5.41016 16C5.41016 16.3693 5.61549 17 6.17416 17.8053C6.64616 18.4853 7.31816 19.2147 8.15816 19.908C8.31282 20.0347 8.32749 20.268 8.18482 20.4107L7.24082 21.356C7.18301 21.4146 7.10525 21.4494 7.02299 21.4533C6.94073 21.4573 6.85999 21.4302 6.79682 21.3773C5.93838 20.6695 5.17675 19.8518 4.53149 18.9453C3.87682 18 3.41016 16.964 3.41016 16C3.41016 15.036 3.87682 14 4.53149 13.0547C5.20616 12.0827 6.16082 11.0947 7.31549 10.2067C9.62349 8.436 12.8315 7 16.4102 7Z" fill="url(#paint1_linear_333_1105)" fill-opacity="0.8"/>
<path d="M16.4102 11C16.5675 11 16.7248 11.0067 16.8782 11.0213C17.1408 11.0467 17.2355 11.36 17.0502 11.5467L15.4328 13.1627C15.0022 13.3116 14.611 13.5564 14.2887 13.8786C13.9665 14.2008 13.7217 14.592 13.5728 15.0227L11.9568 16.64C11.7702 16.8267 11.4568 16.7307 11.4315 16.468C11.3663 15.7749 11.4466 15.0759 11.6672 14.4157C11.8878 13.7554 12.2438 13.1485 12.7125 12.6338C13.1811 12.119 13.7521 11.7079 14.3888 11.4265C15.0256 11.1452 15.714 10.9999 16.4102 11Z" fill="url(#paint2_linear_333_1105)" fill-opacity="0.8"/>
<defs>
<linearGradient id="paint0_linear_333_1105" x1="17.0643" y1="-4.75631" x2="23.4518" y2="54.3653" gradientUnits="userSpaceOnUse">
<stop stop-color="#FD432A"/>
<stop offset="1" stop-color="#FD2AA9"/>
</linearGradient>
<linearGradient id="paint1_linear_333_1105" x1="11.9932" y1="1.35401" x2="15.527" y2="38.0639" gradientUnits="userSpaceOnUse">
<stop stop-color="#FD432A"/>
<stop offset="1" stop-color="#FD2AA9"/>
</linearGradient>
<linearGradient id="paint2_linear_333_1105" x1="14.2781" y1="8.75894" x2="15.9378" y2="23.2755" gradientUnits="userSpaceOnUse">
<stop stop-color="#FD432A"/>
<stop offset="1" stop-color="#FD2AA9"/>
</linearGradient>
</defs>
</svg>
