<svg width="24" height="24" viewBox="0 0 24 24" fill="none" xmlns="http://www.w3.org/2000/svg">
<g id="Basil_Icons">
<path id="Vector" d="M11.03 8.52991C11.1037 8.46125 11.1628 8.37845 11.2038 8.28645C11.2448 8.19445 11.2669 8.09513 11.2686 7.99443C11.2704 7.89373 11.2519 7.7937 11.2142 7.70031C11.1765 7.60692 11.1203 7.52209 11.0491 7.45087C10.9779 7.37965 10.893 7.32351 10.7996 7.28579C10.7063 7.24807 10.6062 7.22954 10.5055 7.23132C10.4048 7.23309 10.3055 7.25514 10.2135 7.29613C10.1215 7.33712 10.0387 7.39622 9.97005 7.46991L5.97005 11.4699C5.90026 11.5394 5.84489 11.622 5.80711 11.713C5.76933 11.8039 5.74988 11.9014 5.74988 11.9999C5.74988 12.0984 5.76933 12.1959 5.80711 12.2869C5.84489 12.3778 5.90026 12.4604 5.97005 12.5299L9.97005 16.5299C10.0387 16.6036 10.1215 16.6627 10.2135 16.7037C10.3055 16.7447 10.4048 16.7667 10.5055 16.7685C10.6062 16.7703 10.7063 16.7518 10.7996 16.714C10.893 16.6763 10.9779 16.6202 11.0491 16.5489C11.1203 16.4777 11.1765 16.3929 11.2142 16.2995C11.2519 16.2061 11.2704 16.1061 11.2686 16.0054C11.2669 15.9047 11.2448 15.8054 11.2038 15.7134C11.1628 15.6214 11.1037 15.5386 11.03 15.4699L8.31005 12.7499H18C18.199 12.7499 18.3897 12.6709 18.5304 12.5302C18.671 12.3896 18.75 12.1988 18.75 11.9999C18.75 11.801 18.671 11.6102 18.5304 11.4696C18.3897 11.3289 18.199 11.2499 18 11.2499H8.31005L11.03 8.52991Z" fill="#BEBEBE"/>
</g>
</svg>
