<svg width="33" height="32" viewBox="0 0 33 32" fill="none" xmlns="http://www.w3.org/2000/svg">
<path fill-rule="evenodd" clip-rule="evenodd" d="M17.0902 7.01872C16.8306 6.86233 16.5333 6.7797 16.2302 6.7797C15.9271 6.7797 15.6298 6.86233 15.3702 7.01872L14.6822 7.43205C12.8406 8.54131 10.7732 9.22211 8.63285 9.42405L8.19952 9.46405C8.11653 9.47172 8.03942 9.51019 7.9834 9.57189C7.92738 9.63359 7.8965 9.71404 7.89685 9.79738V11.9867C7.89678 13.6413 8.22964 15.279 8.8756 16.8022C9.52156 18.3255 10.4674 19.7032 11.6569 20.8534L15.9982 25.0507C16.0604 25.111 16.1436 25.1447 16.2302 25.1447C16.3168 25.1447 16.4 25.111 16.4622 25.0507L20.8022 20.8547C21.9919 19.7047 22.938 18.327 23.5842 16.8037C24.2303 15.2805 24.5634 13.6427 24.5635 11.9881V9.79472C24.5632 9.71184 24.532 9.63204 24.4761 9.57091C24.4201 9.50977 24.3434 9.47167 24.2609 9.46405L23.8275 9.42272C21.6873 9.22119 19.6198 8.54084 17.7782 7.43205L17.0902 7.01872ZM14.3369 5.30538C14.908 4.96134 15.5621 4.77954 16.2289 4.77954C16.8956 4.77954 17.5497 4.96134 18.1209 5.30538L18.8089 5.71872C20.3934 6.67343 22.1724 7.25945 24.0142 7.43338L24.4475 7.47338C25.0259 7.52782 25.5631 7.79604 25.9542 8.2256C26.3453 8.65515 26.5621 9.21514 26.5622 9.79605V11.9881C26.5624 13.9114 26.1756 15.8151 25.4247 17.5857C24.6738 19.3564 23.5743 20.9579 22.1915 22.2947L17.8502 26.4894C17.4151 26.9097 16.8338 27.1447 16.2289 27.1447C15.6239 27.1447 15.0426 26.9097 14.6075 26.4894L10.2675 22.2934C8.88493 20.9567 7.78546 19.3555 7.03458 17.585C6.28371 15.8146 5.89678 13.9111 5.89685 11.9881V9.79605C5.89695 9.21514 6.11374 8.65515 6.50482 8.2256C6.89591 7.79604 7.43316 7.52782 8.01152 7.47338L8.44485 7.43338C10.2865 7.25986 12.0655 6.67429 13.6502 5.72005L14.3382 5.30538H14.3369Z" fill="url(#paint0_linear_333_1203)" fill-opacity="0.8"/>
<defs>
<linearGradient id="paint0_linear_333_1203" x1="16.2295" y1="-3.95685" x2="23.2161" y2="52.5086" gradientUnits="userSpaceOnUse">
<stop stop-color="#FD432A"/>
<stop offset="1" stop-color="#FD2AA9"/>
</linearGradient>
</defs>
</svg>
