<svg width="24" height="24" viewBox="0 0 24 24" fill="none" xmlns="http://www.w3.org/2000/svg">
<path d="M11.4703 8.53C11.6109 8.67045 11.8016 8.74934 12.0003 8.74934C12.1991 8.74934 12.3897 8.67045 12.5303 8.53L13.5303 7.53C13.6351 7.42511 13.7064 7.29154 13.7353 7.14614C13.7642 7.00074 13.7493 6.85004 13.6926 6.71308C13.6359 6.57611 13.5399 6.45903 13.4166 6.37661C13.2934 6.29419 13.1486 6.25013 13.0003 6.25H11.0003C10.8521 6.25013 10.7072 6.29419 10.584 6.37661C10.4608 6.45903 10.3647 6.57611 10.308 6.71308C10.2513 6.85004 10.2365 7.00074 10.2654 7.14614C10.2942 7.29154 10.3656 7.42511 10.4703 7.53L11.4703 8.53ZM11.4703 15.47C11.6109 15.3295 11.8016 15.2507 12.0003 15.2507C12.1991 15.2507 12.3897 15.3295 12.5303 15.47L13.5303 16.47C13.6351 16.5749 13.7064 16.7085 13.7353 16.8539C13.7642 16.9993 13.7493 17.15 13.6926 17.2869C13.6359 17.4239 13.5399 17.541 13.4166 17.6234C13.2934 17.7058 13.1486 17.7499 13.0003 17.75H11.0003C10.8521 17.7499 10.7072 17.7058 10.584 17.6234C10.4608 17.541 10.3647 17.4239 10.308 17.2869C10.2513 17.15 10.2365 16.9993 10.2654 16.8539C10.2942 16.7085 10.3656 16.5749 10.4703 16.47L11.4703 15.47Z" fill="url(#paint0_linear_969_9801)" fill-opacity="0.8"/>
<path fill-rule="evenodd" clip-rule="evenodd" d="M13.1491 11.9999L13.3361 11.8389C15.3115 10.1369 16.954 8.08316 18.1801 5.78188C18.291 5.57367 18.3486 5.34121 18.3478 5.10528C18.347 4.86936 18.2877 4.63731 18.1753 4.4299C18.0628 4.22248 17.9008 4.04615 17.7035 3.91666C17.5063 3.78718 17.2801 3.70858 17.0451 3.68788L15.8711 3.58588C13.2953 3.3607 10.7048 3.3607 8.12908 3.58588L6.95508 3.68788C6.72006 3.70858 6.49383 3.78718 6.29661 3.91666C6.09939 4.04615 5.93733 4.22248 5.8249 4.4299C5.71248 4.63731 5.65319 4.86936 5.65235 5.10528C5.65151 5.34121 5.70914 5.57367 5.82008 5.78188C7.04616 8.08315 8.68863 10.1369 10.6641 11.8389L10.8511 11.9999L10.6641 12.1609C8.68844 13.8634 7.04595 15.9179 5.82008 18.2199C5.70936 18.4281 5.65191 18.6604 5.65286 18.8962C5.65382 19.132 5.71314 19.3639 5.82555 19.5712C5.93795 19.7784 6.09993 19.9547 6.29703 20.0841C6.49412 20.2135 6.7202 20.2921 6.95508 20.3129L8.12908 20.4149C10.7051 20.6409 13.2951 20.6409 15.8711 20.4149L17.0451 20.3129C17.28 20.2921 17.506 20.2135 17.7031 20.0841C17.9002 19.9547 18.0622 19.7784 18.1746 19.5712C18.287 19.3639 18.3463 19.132 18.3473 18.8962C18.3482 18.6604 18.2908 18.4281 18.1801 18.2199C16.9541 15.9183 15.3116 13.8641 13.3361 12.1619L13.1491 11.9999ZM12.0041 11.0059L12.0061 11.0039L12.3571 10.7019C14.1638 9.14517 15.6709 7.27139 16.8041 5.17288L15.7401 5.07988C13.2515 4.86233 10.7487 4.86233 8.26008 5.07988L7.19508 5.17288C8.32844 7.27182 9.83587 9.14594 11.6431 10.7029L11.9931 11.0049C11.994 11.0054 11.995 11.0057 11.9961 11.0059H12.0001C12.0014 11.0061 12.0028 11.0061 12.0041 11.0059ZM12.0061 12.9959L12.0041 12.9939H12.0001C11.9988 12.9936 11.9974 12.9936 11.9961 12.9939L11.9931 12.9959L11.6431 13.2979C9.83589 14.8548 8.32846 16.729 7.19508 18.8279L8.25908 18.9199C10.7491 19.1379 13.2521 19.1379 15.7401 18.9199L16.8041 18.8269C15.671 16.728 14.1639 14.8539 12.3571 13.2969L12.0061 12.9959Z" fill="url(#paint1_linear_969_9801)" fill-opacity="0.8"/>
<defs>
<linearGradient id="paint0_linear_969_9801" x1="12.0003" y1="1.75781" x2="21.7073" y2="27.5886" gradientUnits="userSpaceOnUse">
<stop stop-color="#FD432A"/>
<stop offset="1" stop-color="#FD2AA9"/>
</linearGradient>
<linearGradient id="paint1_linear_969_9801" x1="12.0001" y1="-3.28902" x2="18.6446" y2="39.6899" gradientUnits="userSpaceOnUse">
<stop stop-color="#FD432A"/>
<stop offset="1" stop-color="#FD2AA9"/>
</linearGradient>
</defs>
</svg>
