<svg width="24" height="24" viewBox="0 0 24 24" fill="none" xmlns="http://www.w3.org/2000/svg">
<g id="Basil_Icons">
<path id="Vector" fill-rule="evenodd" clip-rule="evenodd" d="M2.75 3.4C2.75 2.765 3.265 2.25 3.9 2.25H20.1C20.735 2.25 21.25 2.765 21.25 3.4V14.872C21.25 15.177 21.129 15.469 20.913 15.685L18.191 18.407C17.9754 18.6227 17.683 18.7439 17.378 18.744H12.838L9.388 22.195C8.788 22.794 7.766 22.37 7.766 21.523V18.743H3.9C3.595 18.743 3.30249 18.6218 3.08683 18.4062C2.87116 18.1905 2.75 17.898 2.75 17.593V3.4ZM4.25 3.75V17.244H8.116C8.751 17.244 9.266 17.759 9.266 18.394V20.196L11.88 17.581C11.9869 17.4741 12.1138 17.3893 12.2534 17.3315C12.3931 17.2736 12.5428 17.2439 12.694 17.244H17.233L19.75 14.727V3.75H4.25ZM10.469 6.95C10.6679 6.95 10.8587 7.02902 10.9993 7.16967C11.14 7.31032 11.219 7.50109 11.219 7.7V11.972C11.219 12.1709 11.14 12.3617 10.9993 12.5023C10.8587 12.643 10.6679 12.722 10.469 12.722C10.2701 12.722 10.0793 12.643 9.93867 12.5023C9.79802 12.3617 9.719 12.1709 9.719 11.972V7.7C9.719 7.50109 9.79802 7.31032 9.93867 7.16967C10.0793 7.02902 10.2701 6.95 10.469 6.95ZM15.485 6.95C15.6839 6.95 15.8747 7.02902 16.0153 7.16967C16.156 7.31032 16.235 7.50109 16.235 7.7V11.972C16.235 12.1709 16.156 12.3617 16.0153 12.5023C15.8747 12.643 15.6839 12.722 15.485 12.722C15.2861 12.722 15.0953 12.643 14.9547 12.5023C14.814 12.3617 14.735 12.1709 14.735 11.972V7.7C14.735 7.50109 14.814 7.31032 14.9547 7.16967C15.0953 7.02902 15.2861 6.95 15.485 6.95Z" fill="#BEBEBE"/>
</g>
</svg>
